# WaveFront *.obj file (generated by Autodesk ATF)

mtllib GravityConsole.mtl

g Solid1

v -42.893186 0.000000 -87.229071
v -42.893186 0.000000 -4.000000
v -42.893186 45.000000 -87.229071
v -42.893186 45.000000 -4.000000
v -42.753611 45.000000 -88.276491
v -42.753611 45.000000 -2.952573
v -42.697411 0.000000 -88.465137
v -42.697411 0.000000 -2.763932
v -42.344632 45.000000 -89.250822
v -42.344632 45.000000 -1.978242
v -42.129250 0.000000 -89.580212
v -42.129250 0.000000 -1.648859
v -41.694789 45.000000 -90.084066
v -41.694789 45.000000 -1.145002
v -41.656857 45.000000 -90.057497
v -41.656857 45.000000 -1.171573
v -41.244326 0.000000 -90.465136
v -41.244326 0.000000 -0.763932
v -41.091866 43.544416 -90.570593
v -41.091866 43.544416 -0.658473
v -40.876493 44.923143 -89.451351
v -40.876493 44.923143 -1.777719
v -40.406461 41.889701 -90.931768
v -40.406461 41.889701 -0.297299
v -40.129251 0.000000 -91.033297
v -40.129251 0.000000 -0.195774
v -40.126119 44.695520 -88.759804
v -40.126119 44.695520 -2.469266
v -39.664285 40.097933 -91.154041
v -39.664285 40.097933 -0.075028
v -39.434574 44.325876 -88.009434
v -39.434574 44.325876 -3.219639
v -38.893182 0.000000 -91.229067
v -38.893182 0.000000 0.000000
v -38.893182 38.236330 -91.229067
v -38.893182 38.236330 0.000000
v -38.828428 42.414212 -83.229065
v -38.828428 42.414212 -50.229068
v -38.828428 43.828425 -87.229071
v -38.828428 43.828425 -4.000000
v -38.121321 43.121319 -83.229065
v -38.121321 43.121319 -50.229068
v -37.234018 28.091884 -49.229069
v -37.234018 28.091884 -5.000000
v -35.999999 39.585786 -49.229069
v -35.999999 39.585786 -5.000000
v -35.292892 40.292892 -49.229069
v -35.292892 40.292892 -5.000000
v -31.577165 35.162952 -49.229069
v -31.577165 35.162952 -5.000000
v -30.870059 35.870059 -49.229069
v -30.870059 35.870059 -5.000000
v -30.162952 35.162952 -49.229069
v -30.162952 35.162952 -5.000000
v -9.142135 0.000000 -49.229069
v -9.142135 0.000000 -5.000000
v -8.757359 0.000000 -49.229069
v -8.757359 0.000000 -5.000000
v -7.535534 11.121321 -83.229065
v -7.535534 11.121321 -50.229068
v -6.828427 11.828427 -83.229065
v -6.828427 11.828427 -50.229068
v -1.878680 6.878679 -49.229069
v -1.878680 6.878679 -5.000000
v -1.171573 6.171573 -87.229071
v -1.171573 6.171573 -4.000000
v -0.674122 5.565427 -88.009434
v -0.674122 5.565427 -3.219639
v -0.656854 0.000000 -91.229067
v -0.656854 0.000000 0.000000
v -0.304482 4.873880 -88.759804
v -0.304482 4.873880 -2.469266
v -0.076859 4.123507 -89.451351
v -0.076859 4.123507 -1.777719
v 0.000000 0.000000 -91.202011
v 0.000000 0.000000 -0.027058
v 0.000000 0.926194 -91.069250
v 0.000000 0.926194 -0.159821
v 0.000000 1.808208 -90.829306
v 0.000000 1.808208 -0.399759
v 0.000000 2.621424 -90.488892
v 0.000000 2.621424 -0.740177
v 0.000000 3.343146 -90.057497
v 0.000000 3.343146 -1.171573
vt -3.972792 1.000000 0.000000
vt -4.000000 0.972792 0.000000
vt -4.000000 0.000000 0.000000
vt -0.000000 0.000000 0.000000
vt -0.000000 1.000000 0.000000
vt -2.211453 -1.972792 0.000000
vt 2.211453 -1.972792 0.000000
vt 2.211453 2.000000 0.000000
vt -2.211453 2.000000 0.000000
vt -0.000000 0.972792 0.000000
vt -0.027208 1.000000 0.000000
vt -4.000000 1.000000 0.000000
vt -4.000000 0.000000 0.000000
vt -0.000000 0.000000 0.000000
vt -0.000000 0.972792 0.000000
vt -4.422907 0.972792 0.000000
vt -4.422907 0.000000 0.000000
vt -0.000000 0.000000 0.000000
vt -4.422907 0.000000 0.000000
vt -0.000000 0.000000 0.000000
vt -0.000000 1.000000 0.000000
vt -4.422907 1.000000 0.000000
vt -3.300000 0.000000 0.000000
vt -0.000000 0.000000 0.000000
vt -0.000000 0.100000 0.000000
vt -3.300000 0.100000 0.000000
vt -4.425483 0.000000 0.000000
vt -0.000000 0.000000 0.000000
vt -0.000000 0.100000 0.000000
vt -4.425483 0.100000 0.000000
vt -3.300000 0.000000 0.000000
vt -0.000000 0.000000 0.000000
vt -0.000000 0.100000 0.000000
vt -3.300000 0.100000 0.000000
vt -4.425483 0.000000 0.000000
vt -0.000000 0.000000 0.000000
vt -0.000000 0.100000 0.000000
vt -4.425483 0.100000 0.000000
vt -1.650000 2.212742 0.000000
vt -1.650000 -2.212742 0.000000
vt 1.650000 -2.212742 0.000000
vt 1.650000 2.212742 0.000000
vt -0.625483 0.000000 0.000000
vt -0.000000 0.000000 0.000000
vt -0.000000 0.100000 0.000000
vt -0.625483 0.100000 0.000000
vt -4.422907 0.000000 0.000000
vt -0.000000 0.000000 0.000000
vt -0.000000 0.100000 0.000000
vt -4.422907 0.100000 0.000000
vt -0.625483 0.000000 0.000000
vt -0.000000 0.000000 0.000000
vt -0.000000 0.100000 0.000000
vt -0.625483 0.100000 0.000000
vt -4.422907 0.000000 0.000000
vt -0.000000 0.000000 0.000000
vt -0.000000 0.100000 0.000000
vt -4.422907 0.100000 0.000000
vt 2.211453 0.312742 0.000000
vt -2.211453 0.312742 0.000000
vt -2.211453 -0.312742 0.000000
vt 2.211453 -0.312742 0.000000
vt -4.500000 -0.003776 0.000000
vt -4.354442 -0.081371 0.000000
vt -4.188970 -0.158967 0.000000
vt -4.009794 -0.236563 0.000000
vt -3.823633 -0.314159 0.000000
vt -0.000000 -0.314159 0.000000
vt -0.000000 -0.188496 0.000000
vt -0.000000 -0.062832 0.000000
vt -0.000000 0.062832 0.000000
vt -0.000000 0.188496 0.000000
vt -0.000000 0.314159 0.000000
vt -4.500000 0.314159 0.000000
vt -4.500000 0.208181 0.000000
vt -4.500000 0.102203 0.000000
vt -4.061453 1.230446 0.000000
vt -4.061453 1.268923 0.000000
vt 0.361453 1.268923 0.000000
vt 0.361453 1.230446 0.000000
vt 4.161453 -2.144659 0.000000
vt 4.285060 -2.125082 0.000000
vt 4.396567 -2.068266 0.000000
vt 4.485060 -1.979773 0.000000
vt 4.541876 -1.868266 0.000000
vt 4.561453 -1.744659 0.000000
vt 4.561453 2.078974 0.000000
vt 4.558748 2.144659 0.000000
vt -4.558748 2.144659 0.000000
vt -4.561453 2.078974 0.000000
vt -4.561453 -1.744659 0.000000
vt -4.541876 -1.868266 0.000000
vt -4.485060 -1.979773 0.000000
vt -4.396567 -2.068266 0.000000
vt -4.285060 -2.125082 0.000000
vt -4.161453 -2.144659 0.000000
vt 3.889318 0.000000 0.000000
vt 3.889318 3.823633 0.000000
vt 0.065685 0.000000 0.000000
vt -3.862890 0.314159 0.000000
vt -4.049050 0.236563 0.000000
vt -4.228227 0.158967 0.000000
vt -4.393699 0.081371 0.000000
vt -4.539257 0.003776 0.000000
vt -4.536575 0.000000 0.000000
vt -4.475960 -0.078540 0.000000
vt -4.406806 -0.157080 0.000000
vt -4.331768 -0.235619 0.000000
vt -4.253732 -0.314159 0.000000
vt 1.071751 -0.314159 0.000000
vt 1.149788 -0.235619 0.000000
vt 1.224825 -0.157080 0.000000
vt 1.293980 -0.078540 0.000000
vt 1.354594 0.000000 0.000000
vt 1.405628 0.066902 0.000000
vt 1.463131 0.133804 0.000000
vt 1.525498 0.200706 0.000000
vt 1.590990 0.267608 0.000000
vt 1.544544 0.314159 0.000000
vt -4.500000 0.003776 0.000000
vt -4.500000 -0.102203 0.000000
vt -4.500000 -0.208181 0.000000
vt -4.500000 -0.314159 0.000000
vt -0.000000 -0.314159 0.000000
vt -0.000000 -0.188496 0.000000
vt -0.000000 -0.062832 0.000000
vt -0.000000 0.062832 0.000000
vt -0.000000 0.188496 0.000000
vt -0.000000 0.314159 0.000000
vt -3.823633 0.314159 0.000000
vt -4.009794 0.236563 0.000000
vt -4.188970 0.158967 0.000000
vt -4.354442 0.081371 0.000000
vt 3.022754 0.003776 0.000000
vt 2.877195 0.081371 0.000000
vt 2.711724 0.158967 0.000000
vt 2.532547 0.236563 0.000000
vt 2.346387 0.314159 0.000000
vt -3.061047 0.314159 0.000000
vt -3.107493 0.267608 0.000000
vt -3.042001 0.200706 0.000000
vt -2.979634 0.133804 0.000000
vt -2.922131 0.066902 0.000000
vt -2.871097 0.000000 0.000000
vt -2.810483 -0.078540 0.000000
vt -2.741328 -0.157080 0.000000
vt -2.666291 -0.235619 0.000000
vt -2.588255 -0.314159 0.000000
vt 2.737229 -0.314159 0.000000
vt 2.815265 -0.235619 0.000000
vt 2.890302 -0.157080 0.000000
vt 2.959457 -0.078540 0.000000
vt 3.020072 0.000000 0.000000
vt 0.400000 3.823633 0.000000
vt 0.400000 0.000000 0.000000
vt 4.223633 0.000000 0.000000
vt 9.120201 0.000000 0.000000
vt 9.106925 0.092619 0.000000
vt 9.082931 0.180821 0.000000
vt 9.048889 0.262142 0.000000
vt 9.005750 0.334315 0.000000
vt 0.117157 0.334315 0.000000
vt 0.074018 0.262142 0.000000
vt 0.039976 0.180821 0.000000
vt 0.015982 0.092619 0.000000
vt 0.002706 0.000000 0.000000
vt -7.865386 0.157080 0.000000
vt -7.804771 0.078540 0.000000
vt -7.735617 0.000000 0.000000
vt -7.660580 -0.078540 0.000000
vt -7.582543 -0.157080 0.000000
vt 0.740363 -0.157080 0.000000
vt 0.818400 -0.078540 0.000000
vt 0.893437 0.000000 0.000000
vt 0.962591 0.078540 0.000000
vt 1.023206 0.157080 0.000000
vt -1.780727 -2.562742 0.000000
vt -1.780727 1.437258 0.000000
vt 2.642180 1.437258 0.000000
vt 2.642180 -2.562742 0.000000
vt 6.042180 -1.862742 0.000000
vt 2.742180 -1.862742 0.000000
vt 2.742180 2.562742 0.000000
vt 6.042180 2.562742 0.000000
vt -1.780727 1.537258 0.000000
vt -1.780727 2.162742 0.000000
vt 2.642180 2.162742 0.000000
vt 2.642180 1.537258 0.000000
vt 6.442180 -2.662742 0.000000
vt 6.442180 2.662742 0.000000
vt -1.880727 2.662742 0.000000
vt -1.880727 -2.662742 0.000000
vt 5.301817 -0.157080 0.000000
vt 5.379853 -0.078540 0.000000
vt 5.454890 0.000000 0.000000
vt 5.524045 0.078540 0.000000
vt 5.584660 0.157080 0.000000
vt -3.303933 0.157080 0.000000
vt -3.243318 0.078540 0.000000
vt -3.174164 0.000000 0.000000
vt -3.099126 -0.078540 0.000000
vt -3.021090 -0.157080 0.000000
vt -4.446953 -2.024820 0.000000
vt -4.363629 -2.089804 0.000000
vt -4.266196 -2.130702 0.000000
vt -4.161453 -2.144659 0.000000
vt 4.161453 -2.144659 0.000000
vt 4.266196 -2.130702 0.000000
vt 4.363629 -2.089804 0.000000
vt 4.446953 -2.024820 0.000000
vt 4.444296 -2.021026 0.000000
vt -4.444296 -2.021026 0.000000
vt 0.400000 4.500000 0.000000
vt 0.400000 0.000000 0.000000
vt 8.722907 0.000000 0.000000
vt 8.722907 4.500000 0.000000
vn 0.000000 0.000000 0.100000
vn 0.000000 0.000000 0.100000
vn 0.000000 0.000000 0.100000
vn 0.000000 0.000000 0.100000
vn 0.000000 0.000000 0.100000
vn 0.070711 0.070711 0.000000
vn 0.070711 0.070711 0.000000
vn 0.070711 0.070711 0.000000
vn 0.070711 0.070711 0.000000
vn 0.000000 0.000000 -0.100000
vn 0.000000 0.000000 -0.100000
vn 0.000000 0.000000 -0.100000
vn 0.000000 0.000000 -0.100000
vn 0.000000 0.000000 -0.100000
vn -0.070711 0.070711 0.000000
vn -0.070711 0.070711 0.000000
vn -0.070711 0.070711 0.000000
vn -0.070711 0.070711 0.000000
vn 0.070711 -0.070711 0.000000
vn 0.070711 -0.070711 0.000000
vn 0.070711 -0.070711 0.000000
vn 0.070711 -0.070711 0.000000
vn -0.070711 0.070711 0.000000
vn -0.070711 0.070711 0.000000
vn -0.070711 0.070711 0.000000
vn -0.070711 0.070711 0.000000
vn 0.000000 0.000000 0.100000
vn 0.000000 0.000000 0.100000
vn 0.000000 0.000000 0.100000
vn 0.000000 0.000000 0.100000
vn 0.070711 -0.070711 0.000000
vn 0.070711 -0.070711 0.000000
vn 0.070711 -0.070711 0.000000
vn 0.070711 -0.070711 0.000000
vn 0.000000 0.000000 -0.100000
vn 0.000000 0.000000 -0.100000
vn 0.000000 0.000000 -0.100000
vn 0.000000 0.000000 -0.100000
vn 0.070711 0.070711 0.000000
vn 0.070711 0.070711 0.000000
vn 0.070711 0.070711 0.000000
vn 0.070711 0.070711 0.000000
vn 0.000000 0.000000 -0.100000
vn 0.000000 0.000000 -0.100000
vn 0.000000 0.000000 -0.100000
vn 0.000000 0.000000 -0.100000
vn -0.070711 0.070711 0.000000
vn -0.070711 0.070711 0.000000
vn -0.070711 0.070711 0.000000
vn -0.070711 0.070711 0.000000
vn 0.000000 0.000000 0.100000
vn 0.000000 0.000000 0.100000
vn 0.000000 0.000000 0.100000
vn 0.000000 0.000000 0.100000
vn 0.070711 -0.070711 0.000000
vn 0.070711 -0.070711 0.000000
vn 0.070711 -0.070711 0.000000
vn 0.070711 -0.070711 0.000000
vn 0.070711 0.070711 0.000000
vn 0.070711 0.070711 0.000000
vn 0.070711 0.070711 0.000000
vn 0.070711 0.070711 0.000000
vn -0.070040 0.000000 -0.071375
vn -0.054967 0.000000 -0.083538
vn -0.037832 0.000000 -0.092568
vn -0.019278 0.000000 -0.098124
vn 0.000000 0.000000 -0.100000
vn 0.000000 0.000000 -0.100000
vn -0.030902 0.000000 -0.095106
vn -0.058779 0.000000 -0.080902
vn -0.080902 0.000000 -0.058779
vn -0.095106 0.000000 -0.030902
vn -0.100000 0.000000 0.000000
vn -0.100000 0.000000 0.000000
vn -0.096511 0.000000 -0.026186
vn -0.086286 0.000000 -0.050544
vn 0.000000 -0.100000 0.000000
vn 0.000000 -0.100000 0.000000
vn 0.000000 -0.100000 0.000000
vn 0.000000 -0.100000 0.000000
vn 0.000000 -0.100000 0.000000
vn 0.000000 -0.100000 0.000000
vn 0.000000 -0.100000 0.000000
vn 0.000000 -0.100000 0.000000
vn 0.000000 -0.100000 0.000000
vn 0.000000 -0.100000 0.000000
vn 0.000000 -0.100000 0.000000
vn 0.000000 -0.100000 0.000000
vn 0.000000 -0.100000 0.000000
vn 0.000000 -0.100000 0.000000
vn 0.000000 -0.100000 0.000000
vn 0.000000 -0.100000 0.000000
vn 0.000000 -0.100000 0.000000
vn 0.000000 -0.100000 0.000000
vn 0.000000 -0.100000 0.000000
vn 0.000000 -0.100000 0.000000
vn 0.000000 0.000000 -0.100000
vn 0.000000 0.000000 -0.100000
vn 0.000000 0.000000 -0.100000
vn 0.000000 0.000000 -0.100000
vn 0.013631 0.013631 -0.098124
vn 0.026751 0.026751 -0.092568
vn 0.038868 0.038868 -0.083538
vn 0.049526 0.049526 -0.071375
vn 0.050000 0.050000 -0.070711
vn 0.058794 0.058794 -0.055557
vn 0.065328 0.065328 -0.038268
vn 0.069352 0.069352 -0.019509
vn 0.070711 0.070711 0.000000
vn 0.070711 0.070711 0.000000
vn 0.069352 0.069352 -0.019509
vn 0.065328 0.065328 -0.038268
vn 0.058794 0.058794 -0.055557
vn 0.050000 0.050000 -0.070711
vn 0.040978 0.040978 -0.081496
vn 0.030813 0.030813 -0.090006
vn 0.019788 0.019788 -0.096004
vn 0.008211 0.008211 -0.099324
vn 0.000000 0.000000 -0.100000
vn -0.070040 0.000000 0.071375
vn -0.086286 0.000000 0.050544
vn -0.096511 0.000000 0.026186
vn -0.100000 0.000000 0.000000
vn -0.100000 0.000000 0.000000
vn -0.095106 0.000000 0.030902
vn -0.080902 0.000000 0.058779
vn -0.058779 0.000000 0.080902
vn -0.030902 0.000000 0.095106
vn 0.000000 0.000000 0.100000
vn 0.000000 0.000000 0.100000
vn -0.019278 0.000000 0.098124
vn -0.037832 0.000000 0.092568
vn -0.054967 0.000000 0.083538
vn 0.049526 0.049526 0.071375
vn 0.038868 0.038868 0.083538
vn 0.026751 0.026751 0.092568
vn 0.013631 0.013631 0.098124
vn 0.000000 0.000000 0.100000
vn 0.000000 0.000000 0.100000
vn 0.008211 0.008211 0.099324
vn 0.019788 0.019788 0.096004
vn 0.030813 0.030813 0.090006
vn 0.040978 0.040978 0.081496
vn 0.050000 0.050000 0.070711
vn 0.058794 0.058794 0.055557
vn 0.065328 0.065328 0.038268
vn 0.069352 0.069352 0.019509
vn 0.070711 0.070711 0.000000
vn 0.070711 0.070711 0.000000
vn 0.069352 0.069352 0.019509
vn 0.065328 0.065328 0.038268
vn 0.058794 0.058794 0.055557
vn 0.050000 0.050000 0.070711
vn 0.000000 0.000000 0.100000
vn 0.000000 0.000000 0.100000
vn 0.000000 0.000000 0.100000
vn 0.100000 0.000000 0.000000
vn 0.100000 0.000000 0.000000
vn 0.100000 0.000000 0.000000
vn 0.100000 0.000000 0.000000
vn 0.100000 0.000000 0.000000
vn 0.100000 0.000000 0.000000
vn 0.100000 0.000000 0.000000
vn 0.100000 0.000000 0.000000
vn 0.100000 0.000000 0.000000
vn 0.100000 0.000000 0.000000
vn 0.100000 0.000000 0.000000
vn 0.098079 0.019509 0.000000
vn 0.092388 0.038268 0.000000
vn 0.083147 0.055557 0.000000
vn 0.070711 0.070711 0.000000
vn 0.070711 0.070711 0.000000
vn 0.083147 0.055557 0.000000
vn 0.092388 0.038268 0.000000
vn 0.098079 0.019509 0.000000
vn 0.100000 0.000000 0.000000
vn 0.070711 0.070711 0.000000
vn 0.070711 0.070711 0.000000
vn 0.070711 0.070711 0.000000
vn 0.070711 0.070711 0.000000
vn 0.070711 0.070711 0.000000
vn 0.070711 0.070711 0.000000
vn 0.070711 0.070711 0.000000
vn 0.070711 0.070711 0.000000
vn 0.070711 0.070711 0.000000
vn 0.070711 0.070711 0.000000
vn 0.070711 0.070711 0.000000
vn 0.070711 0.070711 0.000000
vn 0.070711 0.070711 0.000000
vn 0.070711 0.070711 0.000000
vn 0.070711 0.070711 0.000000
vn 0.070711 0.070711 0.000000
vn 0.070711 0.070711 0.000000
vn 0.055557 0.083147 0.000000
vn 0.038268 0.092388 0.000000
vn 0.019509 0.098079 0.000000
vn 0.000000 0.100000 0.000000
vn 0.000000 0.100000 0.000000
vn 0.019509 0.098079 0.000000
vn 0.038268 0.092388 0.000000
vn 0.055557 0.083147 0.000000
vn 0.070711 0.070711 0.000000
vn 0.000000 0.100000 0.000000
vn 0.000000 0.100000 0.000000
vn 0.000000 0.100000 0.000000
vn 0.000000 0.100000 0.000000
vn 0.000000 0.100000 0.000000
vn 0.000000 0.100000 0.000000
vn 0.000000 0.100000 0.000000
vn 0.000000 0.100000 0.000000
vn 0.000000 0.100000 0.000000
vn 0.000000 0.100000 0.000000
vn -0.100000 0.000000 0.000000
vn -0.100000 0.000000 0.000000
vn -0.100000 0.000000 0.000000
vn -0.100000 0.000000 0.000000
usemtl 191,191,191
f 55/1/1 57/2/2 43/5/5
f 43/5/5 57/2/2 53/4/4
f 53/4/4 57/2/2 63/3/3
f 56/6/6 55/7/7 44/9/9
f 44/9/9 55/7/7 43/8/8
f 56/11/11 44/12/12 58/10/10
f 58/10/10 44/12/12 54/13/13
f 58/10/10 54/13/13 64/14/14
f 57/15/15 58/16/16 63/18/18
f 63/18/18 58/16/16 64/17/17
f 53/19/19 54/20/20 43/22/22
f 43/22/22 54/20/20 44/21/21
f 62/23/23 61/24/24 60/26/26
f 60/26/26 61/24/24 59/25/25
f 61/27/27 41/28/28 59/30/30
f 59/30/30 41/28/28 37/29/29
f 41/31/31 42/32/32 37/34/34
f 37/34/34 42/32/32 38/33/33
f 42/35/35 62/36/36 38/38/38
f 38/38/38 62/36/36 60/37/37
f 60/40/40 59/41/41 38/39/39
f 38/39/39 59/41/41 37/42/42
f 48/43/43 52/44/44 46/46/46
f 46/46/46 52/44/44 50/45/45
f 52/47/47 51/48/48 50/50/50
f 50/50/50 51/48/48 49/49/49
f 51/51/51 47/52/52 49/54/54
f 49/54/54 47/52/52 45/53/53
f 47/55/55 48/56/56 45/58/58
f 45/58/58 48/56/56 46/57/57
f 45/59/59 46/60/60 49/62/62
f 49/62/62 46/60/60 50/61/61
f 19/64/64 17/70/70 13/63/63
f 13/63/63 17/70/70 11/71/71
f 13/63/63 11/71/71 9/76/76
f 9/76/76 11/71/71 7/72/72
f 9/76/76 7/72/72 5/75/75
f 5/75/75 7/72/72 1/73/73
f 5/75/75 1/73/73 3/74/74
f 19/64/64 23/65/65 17/70/70
f 17/70/70 23/65/65 25/69/69
f 25/69/69 23/65/65 29/66/66
f 25/69/69 29/66/66 33/68/68
f 33/68/68 29/66/66 35/67/67
f 58/78/78 70/90/90 56/77/77
f 56/77/77 70/90/90 34/91/91
f 56/77/77 34/91/91 55/80/80
f 55/80/80 34/91/91 2/96/96
f 55/80/80 2/96/96 1/81/81
f 58/78/78 57/79/79 70/90/90
f 70/90/90 57/79/79 76/89/89
f 76/89/89 57/79/79 75/88/88
f 75/88/88 57/79/79 69/87/87
f 69/87/87 57/79/79 55/80/80
f 69/87/87 55/80/80 33/86/86
f 33/86/86 55/80/80 1/81/81
f 33/86/86 1/81/81 25/85/85
f 25/85/85 1/81/81 17/84/84
f 17/84/84 1/81/81 11/83/83
f 11/83/83 1/81/81 7/82/82
f 34/91/91 26/92/92 2/96/96
f 2/96/96 26/92/92 18/93/93
f 2/96/96 18/93/93 12/94/94
f 12/94/94 8/95/95 2/96/96
f 33/97/97 35/98/98 69/99/99
f 69/119/119 35/100/100 75/118/118
f 75/118/118 35/100/100 29/101/101
f 75/118/118 29/101/101 77/117/117
f 77/117/117 29/101/101 23/102/102
f 77/117/117 23/102/102 79/116/116
f 79/116/116 23/102/102 19/103/103
f 79/116/116 19/103/103 81/115/115
f 81/115/115 19/103/103 13/104/104
f 81/115/115 13/104/104 83/114/114
f 83/114/114 13/104/104 15/105/105
f 83/114/114 15/105/105 21/106/106
f 27/107/107 71/112/112 21/106/106
f 21/106/106 71/112/112 73/113/113
f 21/106/106 73/113/113 83/114/114
f 27/107/107 31/108/108 71/112/112
f 71/112/112 31/108/108 67/111/111
f 67/111/111 31/108/108 65/110/110
f 65/110/110 31/108/108 39/109/109
f 10/121/121 12/126/126 14/120/120
f 14/120/120 12/126/126 18/127/127
f 14/120/120 18/127/127 20/133/133
f 20/133/133 18/127/127 24/132/132
f 24/132/132 18/127/127 26/128/128
f 24/132/132 26/128/128 30/131/131
f 30/131/131 26/128/128 34/129/129
f 30/131/131 34/129/129 36/130/130
f 12/126/126 10/121/121 8/125/125
f 8/125/125 10/121/121 6/122/122
f 8/125/125 6/122/122 2/124/124
f 2/124/124 6/122/122 4/123/123
f 20/135/135 82/143/143 14/134/134
f 14/134/134 82/143/143 84/144/144
f 14/134/134 84/144/144 16/153/153
f 16/153/153 84/144/144 74/145/145
f 16/153/153 74/145/145 22/152/152
f 22/152/152 74/145/145 28/151/151
f 28/151/151 74/145/145 72/146/146
f 28/151/151 72/146/146 68/147/147
f 82/143/143 20/135/135 80/142/142
f 80/142/142 20/135/135 24/136/136
f 80/142/142 24/136/136 78/141/141
f 78/141/141 24/136/136 30/137/137
f 78/141/141 30/137/137 76/140/140
f 76/140/140 30/137/137 36/138/138
f 76/140/140 36/138/138 70/139/139
f 66/148/148 40/149/149 68/147/147
f 68/147/147 40/149/149 32/150/150
f 68/147/147 32/150/150 28/151/151
f 36/154/154 34/155/155 70/156/156
f 76/166/166 75/157/157 78/165/165
f 78/165/165 75/157/157 77/158/158
f 78/165/165 77/158/158 80/164/164
f 80/164/164 77/158/158 79/159/159
f 80/164/164 79/159/159 82/163/163
f 82/163/163 79/159/159 81/160/160
f 82/163/163 81/160/160 84/162/162
f 84/162/162 81/160/160 83/161/161
f 84/176/176 83/167/167 74/175/175
f 74/175/175 83/167/167 73/168/168
f 74/175/175 73/168/168 71/169/169
f 74/175/175 71/169/169 72/174/174
f 72/174/174 71/169/169 67/170/170
f 72/174/174 67/170/170 68/173/173
f 68/173/173 67/170/170 66/172/172
f 66/172/172 67/170/170 65/171/171
f 63/180/180 64/177/177 66/192/192
f 66/192/192 64/177/177 54/178/178
f 66/192/192 54/178/178 40/191/191
f 40/191/191 54/178/178 52/185/185
f 40/191/191 52/185/185 48/186/186
f 54/178/178 53/179/179 52/185/185
f 52/185/185 53/179/179 51/188/188
f 51/188/188 53/179/179 42/183/183
f 51/188/188 42/183/183 47/187/187
f 47/187/187 42/183/183 40/191/191
f 47/187/187 40/191/191 48/186/186
f 42/183/183 53/179/179 62/182/182
f 62/182/182 53/179/179 63/180/180
f 62/182/182 63/180/180 61/181/181
f 61/181/181 63/180/180 65/189/189
f 61/181/181 65/189/189 39/190/190
f 65/189/189 63/180/180 66/192/192
f 40/191/191 42/183/183 39/190/190
f 39/190/190 42/183/183 41/184/184
f 39/190/190 41/184/184 61/181/181
f 40/202/202 39/193/193 32/201/201
f 32/201/201 39/193/193 31/194/194
f 32/201/201 31/194/194 27/195/195
f 32/201/201 27/195/195 28/200/200
f 28/200/200 27/195/195 21/196/196
f 28/200/200 21/196/196 22/199/199
f 22/199/199 21/196/196 16/198/198
f 16/198/198 21/196/196 15/197/197
f 13/203/203 9/204/204 15/212/212
f 15/212/212 9/204/204 3/206/206
f 15/212/212 3/206/206 4/207/207
f 9/204/204 5/205/205 3/206/206
f 6/208/208 10/209/209 4/207/207
f 4/207/207 10/209/209 16/211/211
f 4/207/207 16/211/211 15/212/212
f 10/209/209 14/210/210 16/211/211
f 1/214/214 2/215/215 3/213/213
f 3/213/213 2/215/215 4/216/216

# 84 vertices
# 216 texture params
# 216 normals
# 168 facets

# 1 groups
